<svg width="49" height="40" viewBox="0 0 49 40" fill="none" xmlns="http://www.w3.org/2000/svg">
<path d="M8.81934 38V37.1064H10.9482C11.443 37.1064 11.8174 37.0072 12.0713 36.8086C12.3252 36.61 12.4521 36.3219 12.4521 35.9443V35.9346C12.4521 35.6807 12.3936 35.4691 12.2764 35.2998C12.1592 35.1305 11.9834 35.0036 11.749 34.9189C11.5179 34.8311 11.2298 34.7871 10.8848 34.7871H8.81934V33.9521H10.665C11.1501 33.9521 11.5163 33.8643 11.7637 33.6885C12.0111 33.5094 12.1348 33.249 12.1348 32.9072V32.8975C12.1348 32.5654 12.0225 32.3083 11.7979 32.126C11.5732 31.9404 11.2575 31.8477 10.8506 31.8477H8.81934V30.9541H11.1094C11.5488 30.9541 11.9264 31.0257 12.2422 31.1689C12.5612 31.3122 12.8053 31.5156 12.9746 31.7793C13.1439 32.0397 13.2285 32.349 13.2285 32.707V32.7168C13.2285 32.9642 13.1732 33.1953 13.0625 33.4102C12.9518 33.6217 12.8037 33.8008 12.6182 33.9473C12.4326 34.0938 12.2227 34.1865 11.9883 34.2256V34.3086C12.3073 34.3411 12.5856 34.4339 12.8232 34.5869C13.0609 34.7399 13.2464 34.9385 13.3799 35.1826C13.5133 35.4235 13.5801 35.6969 13.5801 36.0029V36.0127C13.5801 36.4229 13.4824 36.7777 13.2871 37.0771C13.0951 37.3734 12.82 37.6012 12.4619 37.7607C12.1038 37.9202 11.6742 38 11.1729 38H8.81934ZM8.27246 38V30.9541H9.36621V38H8.27246ZM17.1055 38.1025C16.5879 38.1025 16.1403 37.9919 15.7627 37.7705C15.3883 37.5492 15.1003 37.2334 14.8984 36.8232C14.6966 36.4098 14.5957 35.9199 14.5957 35.3535V35.3438C14.5957 34.7741 14.6966 34.2842 14.8984 33.874C15.1035 33.4639 15.3932 33.1481 15.7676 32.9268C16.1452 32.7054 16.5911 32.5947 17.1055 32.5947C17.623 32.5947 18.069 32.7054 18.4434 32.9268C18.8177 33.1449 19.1058 33.4606 19.3076 33.874C19.5127 34.2842 19.6152 34.7741 19.6152 35.3438V35.3535C19.6152 35.9199 19.5127 36.4098 19.3076 36.8232C19.1058 37.2334 18.8177 37.5492 18.4434 37.7705C18.0723 37.9919 17.6263 38.1025 17.1055 38.1025ZM17.1055 37.2139C17.4082 37.2139 17.6654 37.1406 17.877 36.9941C18.0885 36.8444 18.2497 36.6312 18.3604 36.3545C18.471 36.0778 18.5264 35.7441 18.5264 35.3535V35.3438C18.5264 34.9499 18.471 34.6146 18.3604 34.3379C18.2497 34.0612 18.0885 33.8496 17.877 33.7031C17.6654 33.5534 17.4082 33.4785 17.1055 33.4785C16.8027 33.4785 16.5456 33.5534 16.334 33.7031C16.1224 33.8496 15.9596 34.0612 15.8457 34.3379C15.735 34.6146 15.6797 34.9499 15.6797 35.3438V35.3535C15.6797 35.7441 15.735 36.0778 15.8457 36.3545C15.9596 36.6312 16.1224 36.8444 16.334 36.9941C16.5456 37.1406 16.8027 37.2139 17.1055 37.2139ZM23.1211 38.1025C22.6035 38.1025 22.1559 37.9919 21.7783 37.7705C21.404 37.5492 21.1159 37.2334 20.9141 36.8232C20.7122 36.4098 20.6113 35.9199 20.6113 35.3535V35.3438C20.6113 34.7741 20.7122 34.2842 20.9141 33.874C21.1191 33.4639 21.4089 33.1481 21.7832 32.9268C22.1608 32.7054 22.6068 32.5947 23.1211 32.5947C23.6387 32.5947 24.0846 32.7054 24.459 32.9268C24.8333 33.1449 25.1214 33.4606 25.3232 33.874C25.5283 34.2842 25.6309 34.7741 25.6309 35.3438V35.3535C25.6309 35.9199 25.5283 36.4098 25.3232 36.8232C25.1214 37.2334 24.8333 37.5492 24.459 37.7705C24.0879 37.9919 23.6419 38.1025 23.1211 38.1025ZM23.1211 37.2139C23.4238 37.2139 23.681 37.1406 23.8926 36.9941C24.1042 36.8444 24.2653 36.6312 24.376 36.3545C24.4867 36.0778 24.542 35.7441 24.542 35.3535V35.3438C24.542 34.9499 24.4867 34.6146 24.376 34.3379C24.2653 34.0612 24.1042 33.8496 23.8926 33.7031C23.681 33.5534 23.4238 33.4785 23.1211 33.4785C22.8184 33.4785 22.5612 33.5534 22.3496 33.7031C22.138 33.8496 21.9753 34.0612 21.8613 34.3379C21.7507 34.6146 21.6953 34.9499 21.6953 35.3438V35.3535C21.6953 35.7441 21.7507 36.0778 21.8613 36.3545C21.9753 36.6312 22.138 36.8444 22.3496 36.9941C22.5612 37.1406 22.8184 37.2139 23.1211 37.2139ZM28.8193 38.1025C28.3929 38.1025 28.0218 38.0407 27.7061 37.917C27.3903 37.79 27.1396 37.6159 26.9541 37.3945C26.7686 37.1699 26.6595 36.9095 26.627 36.6133V36.6035H27.6914V36.6133C27.7598 36.8118 27.89 36.973 28.082 37.0967C28.2741 37.2204 28.528 37.2822 28.8438 37.2822C29.0618 37.2822 29.2523 37.2513 29.415 37.1895C29.5811 37.1276 29.7113 37.0413 29.8057 36.9307C29.9001 36.82 29.9473 36.693 29.9473 36.5498V36.54C29.9473 36.374 29.8805 36.234 29.7471 36.1201C29.6136 36.0062 29.3939 35.9134 29.0879 35.8418L28.2383 35.6465C27.9062 35.5716 27.6312 35.4691 27.4131 35.3389C27.195 35.2087 27.0339 35.0492 26.9297 34.8604C26.8255 34.6683 26.7734 34.4437 26.7734 34.1865V34.1816C26.7734 33.8724 26.8613 33.599 27.0371 33.3613C27.2129 33.1204 27.4554 32.9333 27.7646 32.7998C28.0771 32.6631 28.4336 32.5947 28.834 32.5947C29.2376 32.5947 29.5892 32.6582 29.8887 32.7852C30.1914 32.9089 30.4307 33.0814 30.6064 33.3027C30.7822 33.5208 30.8864 33.7747 30.9189 34.0645V34.0693H29.9033V34.0596C29.8545 33.874 29.7373 33.7194 29.5518 33.5957C29.3695 33.472 29.1286 33.4102 28.8291 33.4102C28.637 33.4102 28.4661 33.4411 28.3164 33.5029C28.1667 33.5615 28.0479 33.6445 27.96 33.752C27.8753 33.8561 27.833 33.9798 27.833 34.123V34.1328C27.833 34.2435 27.8607 34.3411 27.916 34.4258C27.9746 34.5072 28.0658 34.5804 28.1895 34.6455C28.3132 34.7074 28.4727 34.7627 28.668 34.8115L29.5127 35.002C30.0205 35.1224 30.3981 35.2965 30.6455 35.5244C30.8962 35.7523 31.0215 36.0583 31.0215 36.4424V36.4521C31.0215 36.7777 30.9255 37.0658 30.7334 37.3164C30.5413 37.5638 30.2793 37.7575 29.9473 37.8975C29.6185 38.0342 29.2425 38.1025 28.8193 38.1025ZM34.2441 38.0342C33.6647 38.0342 33.2448 37.9235 32.9844 37.7021C32.7272 37.4775 32.5986 37.1113 32.5986 36.6035V33.5322H31.7686V32.6973H32.5986V31.3594H33.6826V32.6973H34.8203V33.5322H33.6826V36.3447C33.6826 36.6312 33.7396 36.8379 33.8535 36.9648C33.9674 37.0885 34.1562 37.1504 34.4199 37.1504C34.498 37.1504 34.5648 37.1488 34.6201 37.1455C34.6787 37.1423 34.7454 37.1374 34.8203 37.1309V37.9805C34.7357 37.9935 34.6445 38.0049 34.5469 38.0146C34.4492 38.0277 34.3483 38.0342 34.2441 38.0342ZM37.9111 38.1025C37.4847 38.1025 37.1136 38.0407 36.7979 37.917C36.4821 37.79 36.2314 37.6159 36.0459 37.3945C35.8604 37.1699 35.7513 36.9095 35.7188 36.6133V36.6035H36.7832V36.6133C36.8516 36.8118 36.9818 36.973 37.1738 37.0967C37.3659 37.2204 37.6198 37.2822 37.9355 37.2822C38.1536 37.2822 38.3441 37.2513 38.5068 37.1895C38.6729 37.1276 38.8031 37.0413 38.8975 36.9307C38.9919 36.82 39.0391 36.693 39.0391 36.5498V36.54C39.0391 36.374 38.9723 36.234 38.8389 36.1201C38.7054 36.0062 38.4857 35.9134 38.1797 35.8418L37.3301 35.6465C36.998 35.5716 36.723 35.4691 36.5049 35.3389C36.2868 35.2087 36.1257 35.0492 36.0215 34.8604C35.9173 34.6683 35.8652 34.4437 35.8652 34.1865V34.1816C35.8652 33.8724 35.9531 33.599 36.1289 33.3613C36.3047 33.1204 36.5472 32.9333 36.8564 32.7998C37.1689 32.6631 37.5254 32.5947 37.9258 32.5947C38.3294 32.5947 38.681 32.6582 38.9805 32.7852C39.2832 32.9089 39.5225 33.0814 39.6982 33.3027C39.874 33.5208 39.9782 33.7747 40.0107 34.0645V34.0693H38.9951V34.0596C38.9463 33.874 38.8291 33.7194 38.6436 33.5957C38.4613 33.472 38.2204 33.4102 37.9209 33.4102C37.7288 33.4102 37.5579 33.4411 37.4082 33.5029C37.2585 33.5615 37.1396 33.6445 37.0518 33.752C36.9671 33.8561 36.9248 33.9798 36.9248 34.123V34.1328C36.9248 34.2435 36.9525 34.3411 37.0078 34.4258C37.0664 34.5072 37.1576 34.5804 37.2812 34.6455C37.4049 34.7074 37.5645 34.7627 37.7598 34.8115L38.6045 35.002C39.1123 35.1224 39.4899 35.2965 39.7373 35.5244C39.988 35.7523 40.1133 36.0583 40.1133 36.4424V36.4521C40.1133 36.7777 40.0173 37.0658 39.8252 37.3164C39.6331 37.5638 39.3711 37.7575 39.0391 37.8975C38.7103 38.0342 38.3343 38.1025 37.9111 38.1025Z" fill="#B8C0D1"/>
<g clip-path="url(#clip0_193_605)">
<path d="M32.0266 2.48105C33.152 2.33386 34.0656 3.24749 33.9185 4.37291C33.6123 6.71408 32.785 10.5116 30.5611 12.9095C28.5659 15.0607 25.3808 16.7983 23.6483 17.6476C22.9175 18.0058 22.0529 17.8364 21.4775 17.2609L19.1386 14.922C18.5631 14.3466 18.3937 13.482 18.7519 12.7512C19.6012 11.0187 21.3388 7.83356 23.49 5.83842C25.8879 3.61446 29.6854 2.78724 32.0266 2.48105Z" fill="#B8C0D1"/>
<path fill-rule="evenodd" clip-rule="evenodd" d="M19.9545 10.7881L25.6114 16.445L19.9545 10.7881Z" fill="#B8C0D1"/>
<path fill-rule="evenodd" clip-rule="evenodd" d="M18.1867 18.2127L15.3583 21.0412L18.1867 18.2127Z" fill="#B8C0D1"/>
<path fill-rule="evenodd" clip-rule="evenodd" d="M16.0654 16.0914L14.6512 17.5056L16.0654 16.0914Z" fill="#B8C0D1"/>
<path fill-rule="evenodd" clip-rule="evenodd" d="M20.3081 20.3341L18.8939 21.7483L20.3081 20.3341Z" fill="#B8C0D1"/>
<path d="M25.9649 7.60615C25.1839 8.38719 25.1839 9.65352 25.9649 10.4346C26.746 11.2156 28.0123 11.2156 28.7933 10.4346C29.5744 9.65352 29.5744 8.38719 28.7933 7.60614C28.0123 6.8251 26.746 6.8251 25.9649 7.60615Z" fill="#B8C0D1"/>
<path d="M30.5611 12.9095L30.0112 12.3995L30.5611 12.9095ZM23.49 5.83842L24 6.38832L23.49 5.83842ZM33.9185 4.37291L34.6621 4.47017L33.9185 4.37291ZM32.0266 2.48105L32.1239 3.22472L32.0266 2.48105ZM18.7519 12.7512L19.4253 13.0813L18.7519 12.7512ZM23.6483 17.6476L23.3182 16.9742L23.6483 17.6476ZM20.4848 10.2578C20.192 9.9649 19.7171 9.9649 19.4242 10.2578C19.1313 10.5507 19.1313 11.0256 19.4242 11.3185L20.4848 10.2578ZM25.081 16.9753C25.3739 17.2682 25.8488 17.2682 26.1417 16.9753C26.4346 16.6824 26.4346 16.2075 26.1417 15.9146L25.081 16.9753ZM18.7171 18.7431C19.01 18.4502 19.01 17.9753 18.7171 17.6824C18.4242 17.3895 17.9493 17.3895 17.6564 17.6824L18.7171 18.7431ZM14.828 20.5108C14.5351 20.8037 14.5351 21.2786 14.828 21.5715C15.1209 21.8644 15.5958 21.8644 15.8887 21.5715L14.828 20.5108ZM16.5958 16.6218C16.8887 16.3289 16.8887 15.854 16.5958 15.5611C16.3029 15.2682 15.828 15.2682 15.5351 15.5611L16.5958 16.6218ZM14.1209 16.9753C13.828 17.2682 13.828 17.7431 14.1209 18.036C14.4138 18.3289 14.8887 18.3289 15.1815 18.036L14.1209 16.9753ZM20.8384 20.8644C21.1313 20.5715 21.1313 20.0966 20.8384 19.8037C20.5455 19.5108 20.0706 19.5108 19.7777 19.8037L20.8384 20.8644ZM18.3635 21.2179C18.0706 21.5108 18.0706 21.9857 18.3635 22.2786C18.6564 22.5715 19.1313 22.5715 19.4242 22.2786L18.3635 21.2179ZM22.8537 21.1826L23.5961 21.0765L22.8537 21.1826ZM28.0155 17.7178L28.758 17.6117L28.0155 17.7178ZM15.2169 13.5459L15.3229 12.8034L15.3229 12.8034L15.2169 13.5459ZM18.6817 8.38398L18.5756 9.12645L18.5756 9.12645L18.6817 8.38398ZM22.0078 16.7306L19.6689 14.3917L18.6083 15.4524L20.9471 17.7912L22.0078 16.7306ZM30.0112 12.3995C28.1175 14.4412 25.0429 16.1286 23.3182 16.9742L23.9785 18.321C25.7187 17.4679 29.0143 15.6801 31.111 13.4195L30.0112 12.3995ZM19.4253 13.0813C20.2709 11.3566 21.9583 8.28196 24 6.38832L22.98 5.28852C20.7194 7.38517 18.9316 10.6808 18.0785 12.421L19.4253 13.0813ZM33.1748 4.27565C32.8709 6.59899 32.0636 10.1865 30.0112 12.3995L31.111 13.4195C33.5065 10.8367 34.3536 6.82917 34.6621 4.47017L33.1748 4.27565ZM24 6.38832C26.213 4.3359 29.8005 3.52858 32.1239 3.22472L31.9293 1.73738C29.5703 2.04591 25.5628 2.89302 22.98 5.28852L24 6.38832ZM34.6621 4.47017C34.8732 2.8563 33.5432 1.52631 31.9293 1.73738L32.1239 3.22472C32.7608 3.14141 33.2581 3.63868 33.1748 4.27565L34.6621 4.47017ZM19.6689 14.3917C19.3058 14.0285 19.217 13.5063 19.4253 13.0813L18.0785 12.421C17.5703 13.4576 17.8205 14.6646 18.6083 15.4524L19.6689 14.3917ZM20.9471 17.7912C21.7349 18.579 22.9419 18.8292 23.9785 18.321L23.3182 16.9742C22.8932 17.1825 22.371 17.0937 22.0078 16.7306L20.9471 17.7912ZM19.4242 11.3185L25.081 16.9753L26.1417 15.9146L20.4848 10.2578L19.4242 11.3185ZM17.6564 17.6824L14.828 20.5108L15.8887 21.5715L18.7171 18.7431L17.6564 17.6824ZM15.5351 15.5611L14.1209 16.9753L15.1815 18.036L16.5958 16.6218L15.5351 15.5611ZM19.7777 19.8037L18.3635 21.2179L19.4242 22.2786L20.8384 20.8644L19.7777 19.8037ZM25.4346 7.07582C24.3607 8.14976 24.3607 9.89096 25.4346 10.9649L26.4953 9.90424C26.0071 9.41609 26.0071 8.62463 26.4953 8.13648L25.4346 7.07582ZM25.4346 10.9649C26.5085 12.0388 28.2497 12.0388 29.3237 10.9649L28.263 9.90424C27.7749 10.3924 26.9834 10.3924 26.4953 9.90424L25.4346 10.9649ZM29.3237 10.9649C30.3976 9.89096 30.3976 8.14976 29.3237 7.07581L28.263 8.13648C28.7512 8.62463 28.7512 9.41609 28.263 9.90424L29.3237 10.9649ZM29.3237 7.07581C28.2497 6.00187 26.5085 6.00187 25.4346 7.07582L26.4953 8.13648C26.9834 7.64832 27.7749 7.64832 28.263 8.13648L29.3237 7.07581ZM27.2024 18.036L24.0204 21.2179L25.081 22.2786L28.263 19.0966L27.2024 18.036ZM23.5961 21.0765L23.1719 18.1067L21.6869 18.3188L22.1112 21.2887L23.5961 21.0765ZM26.9902 15.8439L27.2731 17.8238L28.758 17.6117L28.4752 15.6318L26.9902 15.8439ZM24.0204 21.2179C23.8747 21.3636 23.6253 21.2805 23.5961 21.0765L22.1112 21.2887C22.3151 22.7162 24.0613 23.2983 25.081 22.2786L24.0204 21.2179ZM28.263 19.0966C28.6525 18.7071 28.8359 18.157 28.758 17.6117L27.2731 17.8238C27.2842 17.9017 27.258 17.9803 27.2024 18.036L28.263 19.0966ZM17.3028 8.1365L14.1209 11.3185L15.1815 12.3791L18.3635 9.19716L17.3028 8.1365ZM15.1108 14.2883L18.0807 14.7126L18.2928 13.2277L15.3229 12.8034L15.1108 14.2883ZM20.7677 7.92436L18.7878 7.64152L18.5756 9.12645L20.5555 9.40929L20.7677 7.92436ZM14.1209 11.3185C13.1012 12.3382 13.6832 14.0844 15.1108 14.2883L15.3229 12.8034C15.119 12.7743 15.0359 12.5248 15.1815 12.3791L14.1209 11.3185ZM18.3635 9.19716C18.4191 9.14151 18.4977 9.11532 18.5756 9.12645L18.7878 7.64152C18.2425 7.56362 17.6923 7.747 17.3028 8.1365L18.3635 9.19716Z" fill="#B8C0D1"/>
<path d="M32.0266 2.48105C33.152 2.33386 34.0656 3.24749 33.9185 4.37291C33.6123 6.71408 32.785 10.5116 30.5611 12.9095C28.5659 15.0607 25.3808 16.7983 23.6483 17.6476C22.9175 18.0058 22.0529 17.8364 21.4775 17.2609L19.1386 14.922C18.5631 14.3466 18.3937 13.482 18.7519 12.7512C19.6012 11.0187 21.3388 7.83356 23.49 5.83842C25.8879 3.61446 29.6854 2.78724 32.0266 2.48105Z" fill="#B8C0D1"/>
<path fill-rule="evenodd" clip-rule="evenodd" d="M19.9545 10.7881L25.6114 16.445L19.9545 10.7881Z" fill="#B8C0D1"/>
<path fill-rule="evenodd" clip-rule="evenodd" d="M18.1867 18.2127L15.3583 21.0412L18.1867 18.2127Z" fill="#B8C0D1"/>
<path fill-rule="evenodd" clip-rule="evenodd" d="M16.0654 16.0914L14.6512 17.5056L16.0654 16.0914Z" fill="#B8C0D1"/>
<path fill-rule="evenodd" clip-rule="evenodd" d="M20.3081 20.3341L18.8939 21.7483L20.3081 20.3341Z" fill="#B8C0D1"/>
<path d="M25.9649 7.60615C25.1839 8.38719 25.1839 9.65352 25.9649 10.4346C26.746 11.2156 28.0123 11.2156 28.7933 10.4346C29.5744 9.65352 29.5744 8.38719 28.7933 7.60614C28.0123 6.8251 26.746 6.8251 25.9649 7.60615Z" fill="#B8C0D1"/>
<path d="M27 16.5L23 18.5V21L24 21.5L27.5 18L27 16.5Z" fill="#B8C0D1"/>
<path d="M18 14L20 11V8.5L19 8L14.5 12.5L18 14Z" fill="#B8C0D1"/>
</g>
<defs>
<clipPath id="clip0_193_605">
<rect width="24" height="24" fill="white" transform="translate(12.5)"/>
</clipPath>
</defs>
</svg>
