<svg width="48" height="40" viewBox="0 0 48 40" fill="none" xmlns="http://www.w3.org/2000/svg">
<path d="M6.41504 38V30.9541H10.8145V31.9014H7.50879V34.1279H10.5361V35.0508H7.50879V38H6.41504ZM12.1133 38V32.6973H13.1729V33.498H13.2559C13.3503 33.2148 13.5163 32.9951 13.7539 32.8389C13.9948 32.6826 14.291 32.6045 14.6426 32.6045C14.7305 32.6045 14.8167 32.6094 14.9014 32.6191C14.986 32.6289 15.0544 32.6403 15.1064 32.6533V33.6299C15.012 33.6104 14.9176 33.5957 14.8232 33.5859C14.7321 33.5762 14.6361 33.5713 14.5352 33.5713C14.265 33.5713 14.0273 33.6234 13.8223 33.7275C13.6204 33.8317 13.4609 33.9782 13.3438 34.167C13.2298 34.3525 13.1729 34.5739 13.1729 34.8311V38H12.1133ZM16.1416 38V32.6973H17.2061V38H16.1416ZM16.6787 31.75C16.4964 31.75 16.3402 31.6849 16.21 31.5547C16.0798 31.4245 16.0146 31.2682 16.0146 31.0859C16.0146 30.9036 16.0798 30.749 16.21 30.6221C16.3402 30.4919 16.4964 30.4268 16.6787 30.4268C16.861 30.4268 17.0173 30.4919 17.1475 30.6221C17.2777 30.749 17.3428 30.9036 17.3428 31.0859C17.3428 31.2682 17.2777 31.4245 17.1475 31.5547C17.0173 31.6849 16.861 31.75 16.6787 31.75ZM20.9707 38.1025C20.4531 38.1025 20.0088 37.9919 19.6377 37.7705C19.2666 37.5459 18.9801 37.2285 18.7783 36.8184C18.5798 36.4082 18.4805 35.9232 18.4805 35.3633V35.3584C18.4805 34.805 18.5798 34.3216 18.7783 33.9082C18.9801 33.4948 19.2633 33.1725 19.6279 32.9414C19.9958 32.7103 20.4255 32.5947 20.917 32.5947C21.4118 32.5947 21.8366 32.7054 22.1914 32.9268C22.5495 33.1481 22.8245 33.459 23.0166 33.8594C23.2087 34.2565 23.3047 34.722 23.3047 35.2559V35.627H19.0176V34.8701H22.7773L22.2695 35.5732V35.1484C22.2695 34.7708 22.2109 34.4583 22.0938 34.2109C21.9798 33.9603 21.8219 33.7731 21.6201 33.6494C21.4183 33.5257 21.1855 33.4639 20.9219 33.4639C20.6582 33.4639 20.4222 33.529 20.2139 33.6592C20.0088 33.7861 19.846 33.9749 19.7256 34.2256C19.6084 34.4762 19.5498 34.7839 19.5498 35.1484V35.5732C19.5498 35.9215 19.6084 36.2194 19.7256 36.4668C19.8428 36.7142 20.0088 36.903 20.2236 37.0332C20.4417 37.1634 20.6989 37.2285 20.9951 37.2285C21.223 37.2285 21.4183 37.1976 21.5811 37.1357C21.7471 37.0706 21.8822 36.9909 21.9863 36.8965C22.0938 36.8021 22.167 36.7093 22.2061 36.6182L22.2256 36.5791H23.251L23.2412 36.623C23.1956 36.7988 23.1159 36.9746 23.002 37.1504C22.888 37.3229 22.7367 37.4808 22.5479 37.624C22.3623 37.7673 22.1377 37.8828 21.874 37.9707C21.6136 38.0586 21.3125 38.1025 20.9707 38.1025ZM24.5645 38V32.6973H25.624V33.498H25.707C25.8372 33.2148 26.0293 32.9935 26.2832 32.834C26.5371 32.6745 26.8577 32.5947 27.2451 32.5947C27.8408 32.5947 28.2965 32.7656 28.6123 33.1074C28.9281 33.4492 29.0859 33.9359 29.0859 34.5674V38H28.0215V34.8164C28.0215 34.3737 27.9287 34.0449 27.7432 33.8301C27.5609 33.612 27.2744 33.5029 26.8838 33.5029C26.6266 33.5029 26.4036 33.5599 26.2148 33.6738C26.026 33.7845 25.8796 33.944 25.7754 34.1523C25.6745 34.3574 25.624 34.6032 25.624 34.8896V38H24.5645ZM32.4941 38.0879C32.0514 38.0879 31.6641 37.9772 31.332 37.7559C31.0033 37.5312 30.7477 37.2139 30.5654 36.8037C30.3864 36.3936 30.2969 35.9102 30.2969 35.3535V35.3438C30.2969 34.7839 30.3864 34.2988 30.5654 33.8887C30.7445 33.4785 30.9984 33.1628 31.3271 32.9414C31.6559 32.7168 32.0449 32.6045 32.4941 32.6045C32.7383 32.6045 32.9661 32.6436 33.1777 32.7217C33.3893 32.7965 33.5765 32.904 33.7393 33.0439C33.902 33.1807 34.0306 33.3451 34.125 33.5371H34.2031V30.6172H35.2676V38H34.2031V37.165H34.125C34.0208 37.3571 33.889 37.5231 33.7295 37.6631C33.57 37.7998 33.3861 37.9056 33.1777 37.9805C32.9694 38.0521 32.7415 38.0879 32.4941 38.0879ZM32.7969 37.1797C33.0898 37.1797 33.3438 37.1064 33.5586 36.96C33.7734 36.8135 33.9378 36.6035 34.0518 36.3301C34.1657 36.0534 34.2227 35.7279 34.2227 35.3535V35.3438C34.2227 34.9661 34.1641 34.6406 34.0469 34.3672C33.9329 34.0938 33.7686 33.8838 33.5537 33.7373C33.3421 33.5876 33.0898 33.5127 32.7969 33.5127C32.5039 33.5127 32.25 33.5876 32.0352 33.7373C31.8236 33.8838 31.6608 34.0938 31.5469 34.3672C31.4362 34.6374 31.3809 34.9629 31.3809 35.3438V35.3535C31.3809 35.7311 31.4362 36.0566 31.5469 36.3301C31.6608 36.6035 31.8236 36.8135 32.0352 36.96C32.25 37.1064 32.5039 37.1797 32.7969 37.1797ZM38.7686 38.1025C38.3421 38.1025 37.971 38.0407 37.6553 37.917C37.3395 37.79 37.0889 37.6159 36.9033 37.3945C36.7178 37.1699 36.6087 36.9095 36.5762 36.6133V36.6035H37.6406V36.6133C37.709 36.8118 37.8392 36.973 38.0312 37.0967C38.2233 37.2204 38.4772 37.2822 38.793 37.2822C39.0111 37.2822 39.2015 37.2513 39.3643 37.1895C39.5303 37.1276 39.6605 37.0413 39.7549 36.9307C39.8493 36.82 39.8965 36.693 39.8965 36.5498V36.54C39.8965 36.374 39.8298 36.234 39.6963 36.1201C39.5628 36.0062 39.3431 35.9134 39.0371 35.8418L38.1875 35.6465C37.8555 35.5716 37.5804 35.4691 37.3623 35.3389C37.1442 35.2087 36.9831 35.0492 36.8789 34.8604C36.7747 34.6683 36.7227 34.4437 36.7227 34.1865V34.1816C36.7227 33.8724 36.8105 33.599 36.9863 33.3613C37.1621 33.1204 37.4046 32.9333 37.7139 32.7998C38.0264 32.6631 38.3828 32.5947 38.7832 32.5947C39.1868 32.5947 39.5384 32.6582 39.8379 32.7852C40.1406 32.9089 40.3799 33.0814 40.5557 33.3027C40.7314 33.5208 40.8356 33.7747 40.8682 34.0645V34.0693H39.8525V34.0596C39.8037 33.874 39.6865 33.7194 39.501 33.5957C39.3187 33.472 39.0778 33.4102 38.7783 33.4102C38.5863 33.4102 38.4154 33.4411 38.2656 33.5029C38.1159 33.5615 37.9971 33.6445 37.9092 33.752C37.8245 33.8561 37.7822 33.9798 37.7822 34.123V34.1328C37.7822 34.2435 37.8099 34.3411 37.8652 34.4258C37.9238 34.5072 38.015 34.5804 38.1387 34.6455C38.2624 34.7074 38.4219 34.7627 38.6172 34.8115L39.4619 35.002C39.9697 35.1224 40.3473 35.2965 40.5947 35.5244C40.8454 35.7523 40.9707 36.0583 40.9707 36.4424V36.4521C40.9707 36.7777 40.8747 37.0658 40.6826 37.3164C40.4906 37.5638 40.2285 37.7575 39.8965 37.8975C39.5677 38.0342 39.1917 38.1025 38.7686 38.1025Z" fill="#B8C0D1"/>
<circle cx="4" cy="4" r="4" transform="matrix(-1 0 0 1 28 3)" fill="#B8C0D1"/>
<path d="M17 16.9347C17 16.0743 17.5409 15.3068 18.3511 15.0175C22.004 13.7128 25.996 13.7128 29.6489 15.0175C30.4591 15.3068 31 16.0743 31 16.9347V18.2502C31 19.4376 29.9483 20.3498 28.7728 20.1818L27.8184 20.0455C25.2856 19.6837 22.7144 19.6837 20.1816 20.0455L19.2272 20.1818C18.0517 20.3498 17 19.4376 17 18.2502V16.9347Z" fill="#B8C0D1"/>
</svg>
