<svg width="49" height="40" viewBox="0 0 49 40" fill="none" xmlns="http://www.w3.org/2000/svg">
<path d="M8.04004 38V30.9541H9.13379V37.0527H12.4395V38H8.04004ZM15.7012 38.1025C15.1836 38.1025 14.736 37.9919 14.3584 37.7705C13.984 37.5492 13.696 37.2334 13.4941 36.8232C13.2923 36.4098 13.1914 35.9199 13.1914 35.3535V35.3438C13.1914 34.7741 13.2923 34.2842 13.4941 33.874C13.6992 33.4639 13.9889 33.1481 14.3633 32.9268C14.7409 32.7054 15.1868 32.5947 15.7012 32.5947C16.2188 32.5947 16.6647 32.7054 17.0391 32.9268C17.4134 33.1449 17.7015 33.4606 17.9033 33.874C18.1084 34.2842 18.2109 34.7741 18.2109 35.3438V35.3535C18.2109 35.9199 18.1084 36.4098 17.9033 36.8232C17.7015 37.2334 17.4134 37.5492 17.0391 37.7705C16.668 37.9919 16.222 38.1025 15.7012 38.1025ZM15.7012 37.2139C16.0039 37.2139 16.2611 37.1406 16.4727 36.9941C16.6842 36.8444 16.8454 36.6312 16.9561 36.3545C17.0667 36.0778 17.1221 35.7441 17.1221 35.3535V35.3438C17.1221 34.9499 17.0667 34.6146 16.9561 34.3379C16.8454 34.0612 16.6842 33.8496 16.4727 33.7031C16.2611 33.5534 16.0039 33.4785 15.7012 33.4785C15.3984 33.4785 15.1413 33.5534 14.9297 33.7031C14.7181 33.8496 14.5553 34.0612 14.4414 34.3379C14.3307 34.6146 14.2754 34.9499 14.2754 35.3438V35.3535C14.2754 35.7441 14.3307 36.0778 14.4414 36.3545C14.5553 36.6312 14.7181 36.8444 14.9297 36.9941C15.1413 37.1406 15.3984 37.2139 15.7012 37.2139ZM21.4727 38.0342C20.8932 38.0342 20.4733 37.9235 20.2129 37.7021C19.9557 37.4775 19.8271 37.1113 19.8271 36.6035V33.5322H18.9971V32.6973H19.8271V31.3594H20.9111V32.6973H22.0488V33.5322H20.9111V36.3447C20.9111 36.6312 20.9681 36.8379 21.082 36.9648C21.196 37.0885 21.3848 37.1504 21.6484 37.1504C21.7266 37.1504 21.7933 37.1488 21.8486 37.1455C21.9072 37.1423 21.974 37.1374 22.0488 37.1309V37.9805C21.9642 37.9935 21.873 38.0049 21.7754 38.0146C21.6777 38.0277 21.5768 38.0342 21.4727 38.0342ZM25.3105 38.0342C24.7311 38.0342 24.3112 37.9235 24.0508 37.7021C23.7936 37.4775 23.665 37.1113 23.665 36.6035V33.5322H22.835V32.6973H23.665V31.3594H24.749V32.6973H25.8867V33.5322H24.749V36.3447C24.749 36.6312 24.806 36.8379 24.9199 36.9648C25.0339 37.0885 25.2227 37.1504 25.4863 37.1504C25.5645 37.1504 25.6312 37.1488 25.6865 37.1455C25.7451 37.1423 25.8118 37.1374 25.8867 37.1309V37.9805C25.8021 37.9935 25.7109 38.0049 25.6133 38.0146C25.5156 38.0277 25.4147 38.0342 25.3105 38.0342ZM29.2949 38.1025C28.7773 38.1025 28.333 37.9919 27.9619 37.7705C27.5908 37.5459 27.3044 37.2285 27.1025 36.8184C26.904 36.4082 26.8047 35.9232 26.8047 35.3633V35.3584C26.8047 34.805 26.904 34.3216 27.1025 33.9082C27.3044 33.4948 27.5876 33.1725 27.9521 32.9414C28.32 32.7103 28.7497 32.5947 29.2412 32.5947C29.736 32.5947 30.1608 32.7054 30.5156 32.9268C30.8737 33.1481 31.1488 33.459 31.3408 33.8594C31.5329 34.2565 31.6289 34.722 31.6289 35.2559V35.627H27.3418V34.8701H31.1016L30.5938 35.5732V35.1484C30.5938 34.7708 30.5352 34.4583 30.418 34.2109C30.304 33.9603 30.1462 33.7731 29.9443 33.6494C29.7425 33.5257 29.5098 33.4639 29.2461 33.4639C28.9824 33.4639 28.7464 33.529 28.5381 33.6592C28.333 33.7861 28.1702 33.9749 28.0498 34.2256C27.9326 34.4762 27.874 34.7839 27.874 35.1484V35.5732C27.874 35.9215 27.9326 36.2194 28.0498 36.4668C28.167 36.7142 28.333 36.903 28.5479 37.0332C28.766 37.1634 29.0231 37.2285 29.3193 37.2285C29.5472 37.2285 29.7425 37.1976 29.9053 37.1357C30.0713 37.0706 30.2064 36.9909 30.3105 36.8965C30.418 36.8021 30.4912 36.7093 30.5303 36.6182L30.5498 36.5791H31.5752L31.5654 36.623C31.5199 36.7988 31.4401 36.9746 31.3262 37.1504C31.2122 37.3229 31.0609 37.4808 30.8721 37.624C30.6865 37.7673 30.4619 37.8828 30.1982 37.9707C29.9378 38.0586 29.6367 38.1025 29.2949 38.1025ZM32.8887 38V32.6973H33.9482V33.498H34.0312C34.1257 33.2148 34.2917 32.9951 34.5293 32.8389C34.7702 32.6826 35.0664 32.6045 35.418 32.6045C35.5059 32.6045 35.5921 32.6094 35.6768 32.6191C35.7614 32.6289 35.8298 32.6403 35.8818 32.6533V33.6299C35.7874 33.6104 35.693 33.5957 35.5986 33.5859C35.5075 33.5762 35.4115 33.5713 35.3105 33.5713C35.0404 33.5713 34.8027 33.6234 34.5977 33.7275C34.3958 33.8317 34.2363 33.9782 34.1191 34.167C34.0052 34.3525 33.9482 34.5739 33.9482 34.8311V38H32.8887ZM37.4883 39.8652C37.4232 39.8652 37.3532 39.862 37.2783 39.8555C37.2035 39.8522 37.1318 39.8473 37.0635 39.8408V39.0059C37.1156 39.0124 37.1725 39.0173 37.2344 39.0205C37.2995 39.0238 37.3613 39.0254 37.4199 39.0254C37.6673 39.0254 37.8675 38.9668 38.0205 38.8496C38.1735 38.7357 38.2891 38.5452 38.3672 38.2783L38.4453 38.0049L36.5215 32.6973H37.6689L39.168 37.4775L38.8359 36.9307H39.2412L38.9141 37.4775L40.4082 32.6973H41.5264L39.5537 38.2002C39.404 38.6234 39.238 38.9554 39.0557 39.1963C38.8734 39.4404 38.6569 39.613 38.4062 39.7139C38.1556 39.8148 37.8496 39.8652 37.4883 39.8652Z" fill="#3B58F8"/>
<path fill-rule="evenodd" clip-rule="evenodd" d="M23.3133 3.44743C22.598 3.14292 21.8893 2.84122 21.2441 3.09507C21.1315 3.13941 21.0198 3.18574 20.9091 3.23401C20.274 3.5111 19.9862 4.22525 19.6957 4.94597C19.4786 5.48474 19.26 6.02718 18.8937 6.39348C18.5274 6.75979 17.9849 6.97839 17.4461 7.19551C16.7254 7.48594 16.0112 7.77373 15.7341 8.40889C15.6858 8.51961 15.6394 8.63138 15.5951 8.74415C15.3412 9.38932 15.6429 10.098 15.9474 10.8133C16.175 11.3478 16.4041 11.886 16.4041 12.4041C16.4041 12.9222 16.175 13.4604 15.9474 13.9949C15.6429 14.7102 15.3412 15.4189 15.5951 16.0641C15.6394 16.1767 15.6857 16.2884 15.734 16.399C16.0111 17.0342 16.7253 17.322 17.4461 17.6125C17.9849 17.8296 18.5274 18.0482 18.8937 18.4145C19.26 18.7808 19.4786 19.3233 19.6957 19.8621C19.9862 20.5829 20.274 21.2971 20.9091 21.5742C21.0198 21.6225 21.1315 21.6688 21.2442 21.7132C21.8893 21.967 22.598 21.6653 23.3133 21.3608C23.8478 21.1332 24.386 20.9041 24.9041 20.9041C25.4222 20.9041 25.9604 21.1332 26.495 21.3608C27.2102 21.6653 27.9189 21.967 28.5641 21.7132C28.6767 21.6688 28.7884 21.6225 28.899 21.5742C29.5342 21.2971 29.822 20.5829 30.1124 19.862C30.3296 19.3232 30.5482 18.7806 30.9145 18.4143C31.2808 18.0479 31.8234 17.8293 32.3622 17.6122C33.083 17.3217 33.7973 17.0339 34.0744 16.3987C34.1226 16.2882 34.1689 16.1766 34.2132 16.0641C34.467 15.4189 34.1653 14.7102 33.8608 13.995C33.6332 13.4604 33.4041 12.9222 33.4041 12.4041C33.4041 11.886 33.6332 11.3478 33.8608 10.8133C34.1653 10.098 34.467 9.38932 34.2132 8.74416C34.1687 8.63129 34.1223 8.51942 34.074 8.4086C33.7969 7.77347 33.0827 7.4857 32.362 7.19527C31.8233 6.97816 31.2808 6.75956 30.9145 6.39326C30.5482 6.02698 30.3296 5.48459 30.1125 4.94587C29.822 4.2252 29.5342 3.5111 28.8991 3.23401C28.7885 3.18574 28.6768 3.13941 28.5641 3.09506C27.9189 2.84121 27.2102 3.14291 26.4949 3.44742C25.9604 3.67498 25.4222 3.90411 24.9041 3.90411C24.386 3.90411 23.8478 3.67498 23.3133 3.44743ZM22.1429 10.7623C22.452 11.0715 22.9532 11.0715 23.2623 10.7623C23.5714 10.4532 23.5714 9.95205 23.2623 9.64294C22.9532 9.33382 22.452 9.33382 22.1429 9.64294C21.8338 9.95205 21.8338 10.4532 22.1429 10.7623ZM27.6653 15.1653C27.3562 15.4744 26.855 15.4744 26.5459 15.1653C26.2368 14.8562 26.2368 14.355 26.5459 14.0459C26.855 13.7368 27.3562 13.7368 27.6653 14.0459C27.9744 14.355 27.9744 14.8562 27.6653 15.1653ZM27.6733 10.6955C27.9661 10.4026 27.9661 9.92772 27.6733 9.63483C27.3804 9.34194 26.9055 9.34194 26.6126 9.63483L22.135 14.1124C21.8421 14.4053 21.8421 14.8802 22.135 15.1731C22.4279 15.466 22.9027 15.466 23.1956 15.1731L27.6733 10.6955Z" fill="#3B58F8"/>
</svg>
