<svg width="48" height="40" viewBox="0 0 48 40" fill="none" xmlns="http://www.w3.org/2000/svg">
<path d="M12.8213 38V30.9541H14.0859L16.3271 36.5693H16.4102L18.6514 30.9541H19.916V38H18.915V32.834H18.373L19.5156 31.1494L16.7715 38H15.9609L13.2217 31.1494L14.3594 32.834H13.8223V38H12.8213ZM23.0117 38.0879C22.6764 38.0879 22.3753 38.0244 22.1084 37.8975C21.8447 37.7673 21.6364 37.5833 21.4834 37.3457C21.3304 37.1081 21.2539 36.8298 21.2539 36.5107V36.501C21.2539 36.182 21.3304 35.9102 21.4834 35.6855C21.6396 35.4609 21.8643 35.2852 22.1572 35.1582C22.4535 35.028 22.8115 34.9499 23.2314 34.9238L25.1895 34.8066V35.5537L23.3779 35.6709C23.0133 35.6937 22.7448 35.7718 22.5723 35.9053C22.3997 36.0355 22.3135 36.2194 22.3135 36.457V36.4668C22.3135 36.7077 22.4062 36.8981 22.5918 37.0381C22.7773 37.1748 23.0117 37.2432 23.2949 37.2432C23.5586 37.2432 23.793 37.1911 23.998 37.0869C24.2064 36.9795 24.3691 36.8363 24.4863 36.6572C24.6035 36.4749 24.6621 36.2699 24.6621 36.042V34.3721C24.6621 34.0791 24.571 33.8561 24.3887 33.7031C24.2096 33.5469 23.9427 33.4688 23.5879 33.4688C23.2917 33.4688 23.0492 33.5208 22.8604 33.625C22.6748 33.7292 22.5511 33.8757 22.4893 34.0645L22.4795 34.0791H21.459L21.4639 34.0449C21.5062 33.752 21.6217 33.498 21.8105 33.2832C22.0026 33.0651 22.2533 32.8958 22.5625 32.7754C22.875 32.6549 23.2314 32.5947 23.6318 32.5947C24.0778 32.5947 24.4554 32.6663 24.7646 32.8096C25.0771 32.9495 25.3132 33.153 25.4727 33.4199C25.6354 33.6836 25.7168 34.001 25.7168 34.3721V38H24.6621V37.248H24.584C24.4798 37.4271 24.3496 37.5801 24.1934 37.707C24.0371 37.8307 23.8597 37.9251 23.6611 37.9902C23.4626 38.0553 23.2461 38.0879 23.0117 38.0879ZM27.2256 38V32.6973H28.29V38H27.2256ZM27.7627 31.75C27.5804 31.75 27.4242 31.6849 27.2939 31.5547C27.1637 31.4245 27.0986 31.2682 27.0986 31.0859C27.0986 30.9036 27.1637 30.749 27.2939 30.6221C27.4242 30.4919 27.5804 30.4268 27.7627 30.4268C27.945 30.4268 28.1012 30.4919 28.2314 30.6221C28.3617 30.749 28.4268 30.9036 28.4268 31.0859C28.4268 31.2682 28.3617 31.4245 28.2314 31.5547C28.1012 31.6849 27.945 31.75 27.7627 31.75ZM29.8281 38V32.6973H30.8877V33.498H30.9707C31.1009 33.2148 31.293 32.9935 31.5469 32.834C31.8008 32.6745 32.1214 32.5947 32.5088 32.5947C33.1045 32.5947 33.5602 32.7656 33.876 33.1074C34.1917 33.4492 34.3496 33.9359 34.3496 34.5674V38H33.2852V34.8164C33.2852 34.3737 33.1924 34.0449 33.0068 33.8301C32.8245 33.612 32.5381 33.5029 32.1475 33.5029C31.8903 33.5029 31.6673 33.5599 31.4785 33.6738C31.2897 33.7845 31.1432 33.944 31.0391 34.1523C30.9382 34.3574 30.8877 34.6032 30.8877 34.8896V38H29.8281Z" fill="#B8C0D1"/>
<path fill-rule="evenodd" clip-rule="evenodd" d="M22 4H26C29.771 4 31.657 4 32.828 5.172C33.672 6.015 33.908 7.229 33.974 9.25H14.026C14.092 7.229 14.328 6.015 15.172 5.172C16.343 4 18.229 4 22 4ZM26 20H22C18.229 20 16.343 20 15.172 18.828C14 17.657 14 15.771 14 12C14 11.558 14 11.142 14.002 10.75H33.998C34 11.142 34 11.558 34 12C34 15.771 34 17.657 32.828 18.828C31.657 20 29.771 20 26 20ZM18 15.25C17.8011 15.25 17.6103 15.329 17.4697 15.4697C17.329 15.6103 17.25 15.8011 17.25 16C17.25 16.1989 17.329 16.3897 17.4697 16.5303C17.6103 16.671 17.8011 16.75 18 16.75H22C22.1989 16.75 22.3897 16.671 22.5303 16.5303C22.671 16.3897 22.75 16.1989 22.75 16C22.75 15.8011 22.671 15.6103 22.5303 15.4697C22.3897 15.329 22.1989 15.25 22 15.25H18ZM24.5 15.25C24.3011 15.25 24.1103 15.329 23.9697 15.4697C23.829 15.6103 23.75 15.8011 23.75 16C23.75 16.1989 23.829 16.3897 23.9697 16.5303C24.1103 16.671 24.3011 16.75 24.5 16.75H26C26.1989 16.75 26.3897 16.671 26.5303 16.5303C26.671 16.3897 26.75 16.1989 26.75 16C26.75 15.8011 26.671 15.6103 26.5303 15.4697C26.3897 15.329 26.1989 15.25 26 15.25H24.5Z" fill="#B8C0D1"/>
</svg>
