<svg width="48" height="40" viewBox="0 0 48 40" fill="none" xmlns="http://www.w3.org/2000/svg">
<path d="M10.8506 38.1709C10.167 38.1709 9.57943 38.0212 9.08789 37.7217C8.59635 37.4189 8.21875 36.9909 7.95508 36.4375C7.69141 35.8841 7.55957 35.2314 7.55957 34.4795V34.4697C7.55957 33.7113 7.69303 33.057 7.95996 32.5068C8.22689 31.9567 8.60612 31.5319 9.09766 31.2324C9.59245 30.9329 10.1768 30.7832 10.8506 30.7832C11.5277 30.7832 12.112 30.9329 12.6035 31.2324C13.0951 31.5319 13.4727 31.9583 13.7363 32.5117C14.0033 33.0618 14.1367 33.7145 14.1367 34.4697V34.4795C14.1367 35.2314 14.0049 35.8841 13.7412 36.4375C13.4775 36.9876 13.0983 37.4141 12.6035 37.7168C12.112 38.0195 11.5277 38.1709 10.8506 38.1709ZM10.8506 37.1992C11.2933 37.1992 11.6774 37.0869 12.0029 36.8623C12.3285 36.6377 12.5791 36.3219 12.7549 35.915C12.9307 35.5049 13.0186 35.0264 13.0186 34.4795V34.4697C13.0186 33.9163 12.9307 33.4362 12.7549 33.0293C12.5791 32.6224 12.3285 32.3083 12.0029 32.0869C11.6774 31.8656 11.2933 31.7549 10.8506 31.7549C10.4079 31.7549 10.0238 31.8656 9.69824 32.0869C9.37598 32.3083 9.12533 32.6224 8.94629 33.0293C8.76725 33.4362 8.67773 33.9163 8.67773 34.4697V34.4795C8.67773 35.0264 8.764 35.5049 8.93652 35.915C9.1123 36.3219 9.36133 36.6377 9.68359 36.8623C10.0091 37.0869 10.3981 37.1992 10.8506 37.1992ZM12.7158 38.7617L10.5918 35.8711H11.7197L13.8438 38.7617H12.7158ZM17.2666 38.1025C16.8695 38.1025 16.5342 38.026 16.2607 37.873C15.9906 37.7168 15.7871 37.4922 15.6504 37.1992C15.5169 36.903 15.4502 36.5465 15.4502 36.1299V32.6973H16.5098V35.8809C16.5098 36.3171 16.596 36.6442 16.7686 36.8623C16.9411 37.0804 17.2227 37.1895 17.6133 37.1895C17.8216 37.1895 18.0072 37.1585 18.1699 37.0967C18.3327 37.0316 18.4694 36.9388 18.5801 36.8184C18.6908 36.6979 18.7721 36.5531 18.8242 36.3838C18.8796 36.2145 18.9072 36.0225 18.9072 35.8076V32.6973H19.9717V38H18.9072V37.1992H18.8291C18.7445 37.388 18.6289 37.5508 18.4824 37.6875C18.3359 37.821 18.1602 37.9235 17.9551 37.9951C17.7533 38.0667 17.5238 38.1025 17.2666 38.1025ZM23.7217 38.1025C23.2041 38.1025 22.7598 37.9919 22.3887 37.7705C22.0176 37.5459 21.7311 37.2285 21.5293 36.8184C21.3307 36.4082 21.2314 35.9232 21.2314 35.3633V35.3584C21.2314 34.805 21.3307 34.3216 21.5293 33.9082C21.7311 33.4948 22.0143 33.1725 22.3789 32.9414C22.7467 32.7103 23.1764 32.5947 23.668 32.5947C24.1628 32.5947 24.5876 32.7054 24.9424 32.9268C25.3005 33.1481 25.5755 33.459 25.7676 33.8594C25.9596 34.2565 26.0557 34.722 26.0557 35.2559V35.627H21.7686V34.8701H25.5283L25.0205 35.5732V35.1484C25.0205 34.7708 24.9619 34.4583 24.8447 34.2109C24.7308 33.9603 24.5729 33.7731 24.3711 33.6494C24.1693 33.5257 23.9365 33.4639 23.6729 33.4639C23.4092 33.4639 23.1732 33.529 22.9648 33.6592C22.7598 33.7861 22.597 33.9749 22.4766 34.2256C22.3594 34.4762 22.3008 34.7839 22.3008 35.1484V35.5732C22.3008 35.9215 22.3594 36.2194 22.4766 36.4668C22.5938 36.7142 22.7598 36.903 22.9746 37.0332C23.1927 37.1634 23.4499 37.2285 23.7461 37.2285C23.974 37.2285 24.1693 37.1976 24.332 37.1357C24.498 37.0706 24.6331 36.9909 24.7373 36.8965C24.8447 36.8021 24.918 36.7093 24.957 36.6182L24.9766 36.5791H26.002L25.9922 36.623C25.9466 36.7988 25.8669 36.9746 25.7529 37.1504C25.639 37.3229 25.4876 37.4808 25.2988 37.624C25.1133 37.7673 24.8887 37.8828 24.625 37.9707C24.3646 38.0586 24.0635 38.1025 23.7217 38.1025ZM29.2441 38.1025C28.8177 38.1025 28.4466 38.0407 28.1309 37.917C27.8151 37.79 27.5645 37.6159 27.3789 37.3945C27.1934 37.1699 27.0843 36.9095 27.0518 36.6133V36.6035H28.1162V36.6133C28.1846 36.8118 28.3148 36.973 28.5068 37.0967C28.6989 37.2204 28.9528 37.2822 29.2686 37.2822C29.4867 37.2822 29.6771 37.2513 29.8398 37.1895C30.0059 37.1276 30.1361 37.0413 30.2305 36.9307C30.3249 36.82 30.3721 36.693 30.3721 36.5498V36.54C30.3721 36.374 30.3053 36.234 30.1719 36.1201C30.0384 36.0062 29.8187 35.9134 29.5127 35.8418L28.6631 35.6465C28.3311 35.5716 28.056 35.4691 27.8379 35.3389C27.6198 35.2087 27.4587 35.0492 27.3545 34.8604C27.2503 34.6683 27.1982 34.4437 27.1982 34.1865V34.1816C27.1982 33.8724 27.2861 33.599 27.4619 33.3613C27.6377 33.1204 27.8802 32.9333 28.1895 32.7998C28.502 32.6631 28.8584 32.5947 29.2588 32.5947C29.6624 32.5947 30.014 32.6582 30.3135 32.7852C30.6162 32.9089 30.8555 33.0814 31.0312 33.3027C31.207 33.5208 31.3112 33.7747 31.3438 34.0645V34.0693H30.3281V34.0596C30.2793 33.874 30.1621 33.7194 29.9766 33.5957C29.7943 33.472 29.5534 33.4102 29.2539 33.4102C29.0618 33.4102 28.891 33.4411 28.7412 33.5029C28.5915 33.5615 28.4727 33.6445 28.3848 33.752C28.3001 33.8561 28.2578 33.9798 28.2578 34.123V34.1328C28.2578 34.2435 28.2855 34.3411 28.3408 34.4258C28.3994 34.5072 28.4906 34.5804 28.6143 34.6455C28.738 34.7074 28.8975 34.7627 29.0928 34.8115L29.9375 35.002C30.4453 35.1224 30.8229 35.2965 31.0703 35.5244C31.321 35.7523 31.4463 36.0583 31.4463 36.4424V36.4521C31.4463 36.7777 31.3503 37.0658 31.1582 37.3164C30.9661 37.5638 30.7041 37.7575 30.3721 37.8975C30.0433 38.0342 29.6673 38.1025 29.2441 38.1025ZM34.6689 38.0342C34.0895 38.0342 33.6696 37.9235 33.4092 37.7021C33.152 37.4775 33.0234 37.1113 33.0234 36.6035V33.5322H32.1934V32.6973H33.0234V31.3594H34.1074V32.6973H35.2451V33.5322H34.1074V36.3447C34.1074 36.6312 34.1644 36.8379 34.2783 36.9648C34.3923 37.0885 34.5811 37.1504 34.8447 37.1504C34.9229 37.1504 34.9896 37.1488 35.0449 37.1455C35.1035 37.1423 35.1702 37.1374 35.2451 37.1309V37.9805C35.1605 37.9935 35.0693 38.0049 34.9717 38.0146C34.874 38.0277 34.7731 38.0342 34.6689 38.0342ZM38.3359 38.1025C37.9095 38.1025 37.5384 38.0407 37.2227 37.917C36.9069 37.79 36.6562 37.6159 36.4707 37.3945C36.2852 37.1699 36.1761 36.9095 36.1436 36.6133V36.6035H37.208V36.6133C37.2764 36.8118 37.4066 36.973 37.5986 37.0967C37.7907 37.2204 38.0446 37.2822 38.3604 37.2822C38.5785 37.2822 38.7689 37.2513 38.9316 37.1895C39.0977 37.1276 39.2279 37.0413 39.3223 36.9307C39.4167 36.82 39.4639 36.693 39.4639 36.5498V36.54C39.4639 36.374 39.3971 36.234 39.2637 36.1201C39.1302 36.0062 38.9105 35.9134 38.6045 35.8418L37.7549 35.6465C37.4229 35.5716 37.1478 35.4691 36.9297 35.3389C36.7116 35.2087 36.5505 35.0492 36.4463 34.8604C36.3421 34.6683 36.29 34.4437 36.29 34.1865V34.1816C36.29 33.8724 36.3779 33.599 36.5537 33.3613C36.7295 33.1204 36.972 32.9333 37.2812 32.7998C37.5938 32.6631 37.9502 32.5947 38.3506 32.5947C38.7542 32.5947 39.1058 32.6582 39.4053 32.7852C39.708 32.9089 39.9473 33.0814 40.123 33.3027C40.2988 33.5208 40.403 33.7747 40.4355 34.0645V34.0693H39.4199V34.0596C39.3711 33.874 39.2539 33.7194 39.0684 33.5957C38.8861 33.472 38.6452 33.4102 38.3457 33.4102C38.1536 33.4102 37.9827 33.4411 37.833 33.5029C37.6833 33.5615 37.5645 33.6445 37.4766 33.752C37.3919 33.8561 37.3496 33.9798 37.3496 34.123V34.1328C37.3496 34.2435 37.3773 34.3411 37.4326 34.4258C37.4912 34.5072 37.5824 34.5804 37.7061 34.6455C37.8298 34.7074 37.9893 34.7627 38.1846 34.8115L39.0293 35.002C39.5371 35.1224 39.9147 35.2965 40.1621 35.5244C40.4128 35.7523 40.5381 36.0583 40.5381 36.4424V36.4521C40.5381 36.7777 40.4421 37.0658 40.25 37.3164C40.0579 37.5638 39.7959 37.7575 39.4639 37.8975C39.1351 38.0342 38.7591 38.1025 38.3359 38.1025Z" fill="#B8C0D1"/>
<path d="M22.9718 2.70846C23.4382 1.93348 24.5618 1.93348 25.0282 2.70847L27.3586 6.58087C27.5262 6.85928 27.7995 7.05784 28.116 7.13116L32.5191 8.15091C33.4002 8.35499 33.7474 9.42356 33.1545 10.1066L30.1918 13.5196C29.9788 13.765 29.8744 14.0863 29.9025 14.41L30.2932 18.9127C30.3714 19.8138 29.4625 20.4742 28.6296 20.1214L24.4681 18.3583C24.1689 18.2316 23.8311 18.2316 23.5319 18.3583L19.3704 20.1214C18.5375 20.4742 17.6286 19.8138 17.7068 18.9127L18.0975 14.41C18.1256 14.0863 18.0212 13.765 17.8082 13.5196L14.8455 10.1066C14.2526 9.42356 14.5998 8.35499 15.4809 8.15091L19.884 7.13116C20.2005 7.05784 20.4738 6.85928 20.6414 6.58087L22.9718 2.70846Z" fill="#B8C0D1"/>
</svg>
